<svg width="510" height="45" viewBox="0 0 510 45" fill="none" xmlns="http://www.w3.org/2000/svg">
<path d="M44.528 0.199997H20.464C18.608 0.199997 16.496 1.736 15.792 3.592L0.88 41.672C0.112 43.528 1.072 45 2.928 45H9.968L24.688 7.56L21.36 6.408H26.992C27.056 6.344 27.12 6.344 27.184 6.344H33.008C34.096 6.344 34.672 7.304 34.224 8.392L30 19.144H24.816L23.216 23.368C22.064 26.184 23.472 28.552 26.352 28.552L19.888 45H26.928C28.784 45 30.896 43.528 31.6 41.672L46.576 3.592C47.28 1.736 46.384 0.199997 44.528 0.199997ZM79.9655 0.199997H72.8615L58.5255 36.872C58.0135 38.024 56.9255 38.792 55.7095 38.92H49.8855C48.7335 38.92 48.2215 37.96 48.6055 36.872L63.0055 0.199997H55.9015C54.0455 0.199997 51.9335 1.736 51.2295 3.592L36.3175 41.672C35.5495 43.528 36.5095 45 38.3655 45H62.3655C64.2215 45 66.3335 43.528 67.0375 41.672L82.0135 3.592C82.7175 1.736 81.8215 0.199997 79.9655 0.199997ZM114.251 2.376C114.251 1.736 113.995 1.16 113.547 0.775997C113.483 0.711998 113.355 0.647999 113.227 0.584C113.035 0.455997 112.843 0.391998 112.651 0.327999C112.395 0.263996 112.203 0.199997 111.947 0.199997H87.883C87.627 0.263996 87.371 0.263996 87.115 0.327999C86.859 0.391998 86.603 0.455997 86.347 0.584C86.155 0.647999 85.963 0.711998 85.835 0.775997C85.067 1.16 84.427 1.736 83.915 2.376C83.659 2.696 83.403 3.144 83.211 3.592L80.843 9.672H91.019L78.475 41.672C77.707 43.528 78.667 45 80.523 45H87.563L99.659 14.152L100.939 10.888L97.611 9.672H101.387H111.627L113.995 3.592C114.123 3.208 114.251 2.76 114.251 2.376ZM144.653 0.199997H120.589C118.733 0.199997 116.621 1.736 115.917 3.592L101.005 41.672C100.237 43.528 101.197 45 102.989 45H127.053C128.909 45 131.021 43.528 131.725 41.672L146.701 3.592C147.405 1.736 146.509 0.199997 144.653 0.199997ZM134.349 8.392L123.213 36.872C122.701 38.024 121.613 38.792 120.397 38.92H114.573C113.421 38.92 112.909 37.96 113.293 36.872L124.813 7.56L121.485 6.344H133.133C134.221 6.344 134.797 7.304 134.349 8.392ZM179.259 10.056L181.819 3.592C182.523 1.736 181.627 0.199997 179.771 0.199997H155.707C153.851 0.199997 151.803 1.736 151.035 3.592L143.227 23.496C142.587 25.096 143.419 26.44 145.019 26.44H160.187C161.403 26.44 161.979 27.464 161.531 28.68L158.331 36.872C157.819 38.024 156.731 38.792 155.515 38.92H149.691C148.539 38.92 148.027 37.96 148.411 36.872L149.435 34.376H139.002L136.122 41.672C135.354 43.528 136.314 45 138.17 45H162.171C164.027 45 166.139 43.528 166.907 41.672L175.739 19.08C176.443 17.288 175.547 15.816 173.755 15.816H158.907C157.691 15.816 157.115 14.792 157.562 13.576L159.931 7.56L156.603 6.408H162.235C162.299 6.344 162.363 6.344 162.427 6.344H168.251C169.403 6.344 169.915 7.304 169.467 8.392L168.827 10.056H179.259ZM241.341 0.199997H217.277C215.421 0.199997 213.309 1.736 212.605 3.592L197.692 41.672C196.924 43.528 197.884 45 199.74 45H206.781L221.501 7.56L218.173 6.408H223.805C223.869 6.344 223.933 6.344 223.997 6.344H229.821C230.909 6.344 231.485 7.304 231.037 8.392L226.813 19.144H221.628L220.029 23.368C218.877 26.184 220.285 28.552 223.165 28.552L216.701 45H223.741C225.597 45 227.709 43.528 228.413 41.672L243.389 3.592C244.093 1.736 243.197 0.199997 241.341 0.199997ZM276.778 0.199997H252.714C250.858 0.199997 248.746 1.736 248.042 3.592L233.13 41.672C232.362 43.528 233.322 45 235.178 45H242.218L256.938 7.56L253.61 6.344H265.258C266.346 6.344 266.922 7.304 266.474 8.392L252.138 45H259.178C261.034 45 263.146 43.528 263.85 41.672L278.826 3.592C279.53 1.736 278.634 0.199997 276.778 0.199997ZM308.12 0.199997H284.888L267.287 45H290.52C294.68 45 299.416 41.672 301.016 37.512L312.664 7.752C314.328 3.592 312.28 0.199997 308.12 0.199997ZM300.888 11.208L291.928 34.056C290.904 36.744 287.896 38.92 285.208 38.92H280.152L292.44 7.56L289.112 6.344H297.944C300.632 6.344 301.912 8.52 300.888 11.208ZM374.546 0.455997H346.322L328.978 44.808H338.962L352.338 10.568L353.618 7.368L350.29 6.152H363.218C363.474 6.088 363.794 6.216 363.922 6.472C364.114 6.792 364.114 7.112 363.986 7.368L361.554 13.512C361.426 13.896 361.106 14.216 360.786 14.472C360.402 14.792 359.954 14.984 359.442 14.984H355.794L354.386 18.568H364.05C364.114 18.568 364.242 18.568 364.37 18.632V18.568H364.242H364.37C367.058 18.184 369.362 16.648 370.898 14.408C371.346 13.64 371.794 12.808 372.114 11.976L375.826 2.568C376.274 1.416 375.698 0.455997 374.546 0.455997ZM406.653 0.199997H382.589C380.733 0.199997 378.621 1.736 377.917 3.592L363.005 41.672C362.237 43.528 363.197 45 365.053 45H372.093L386.813 7.56L383.485 6.408H389.117C389.181 6.344 389.245 6.344 389.309 6.344H395.133C396.221 6.344 396.797 7.304 396.349 8.392L392.125 19.144H386.941L385.341 23.368C384.189 26.184 385.597 28.552 388.477 28.552L382.013 45H389.053C390.909 45 393.021 43.528 393.725 41.672L408.701 3.592C409.405 1.736 408.509 0.199997 406.653 0.199997ZM439.147 16.392L444.203 3.592C444.907 1.736 444.011 0.199997 442.155 0.199997H414.763L397.162 45H407.659L421.995 8.392C421.995 8.328 422.059 8.328 422.059 8.264L422.315 7.56L418.987 6.344H430.635C431.787 6.344 432.299 7.304 431.851 8.392L428.523 16.904C428.011 18.184 426.731 19.08 425.323 19.144H422.443L418.795 28.552H419.051C421.739 28.552 423.083 30.728 422.059 33.48L417.515 45H424.619C426.411 45 428.523 43.528 429.291 41.672L434.539 28.296C435.179 26.568 435.243 25.16 434.539 24.264C434.027 23.56 433.323 23.112 432.427 22.92C434.603 22.28 437.547 20.552 439.147 16.392ZM476.314 2.376C476.314 1.736 476.058 1.16 475.61 0.775997C475.546 0.711998 475.418 0.647999 475.29 0.584C475.097 0.455997 474.906 0.391998 474.714 0.327999C474.458 0.263996 474.266 0.199997 474.01 0.199997H449.946C449.69 0.263996 449.434 0.263996 449.178 0.327999C448.922 0.391998 448.666 0.455997 448.41 0.584C448.218 0.647999 448.026 0.711998 447.898 0.775997C447.13 1.16 446.49 1.736 445.978 2.376C445.722 2.696 445.466 3.144 445.274 3.592L442.906 9.672H453.082L440.538 41.672C439.77 43.528 440.73 45 442.586 45H449.626L461.722 14.152L463.002 10.888L459.674 9.672H463.45H473.69L476.058 3.592C476.186 3.208 476.314 2.76 476.314 2.376ZM505.884 10.056L508.444 3.592C509.148 1.736 508.252 0.199997 506.396 0.199997H482.332C480.476 0.199997 478.428 1.736 477.66 3.592L469.852 23.496C469.212 25.096 470.044 26.44 471.644 26.44H486.812C488.028 26.44 488.604 27.464 488.156 28.68L484.956 36.872C484.444 38.024 483.356 38.792 482.14 38.92H476.316C475.164 38.92 474.652 37.96 475.036 36.872L476.06 34.376H465.627L462.747 41.672C461.979 43.528 462.939 45 464.795 45H488.796C490.652 45 492.764 43.528 493.532 41.672L502.364 19.08C503.068 17.288 502.172 15.816 500.38 15.816H485.532C484.316 15.816 483.74 14.792 484.188 13.576L486.556 7.56L483.228 6.408H488.86C488.924 6.344 488.988 6.344 489.052 6.344H494.876C496.028 6.344 496.54 7.304 496.092 8.392L495.452 10.056H505.884Z" fill="url(#paint0_linear_138_816)"/>
<defs>
<linearGradient id="paint0_linear_138_816" x1="6" y1="28.0001" x2="514.751" y2="28.0001" gradientUnits="userSpaceOnUse">
<stop stop-color="#020044"/>
<stop offset="0.576517" stop-color="#0000A2"/>
<stop offset="0.977337" stop-color="#0000A2" stop-opacity="0.77"/>
</linearGradient>
</defs>
</svg>
