<svg width="104" height="110" viewBox="0 0 104 110" fill="none" xmlns="http://www.w3.org/2000/svg">
<path d="M99.3729 89.3984C96.7938 83.2895 93.0512 77.7405 88.3534 73.0605C83.6698 68.3671 78.1217 64.6251 72.0155 62.041C71.9608 62.0137 71.9061 62 71.8514 61.9727C80.369 55.8203 85.9061 45.7988 85.9061 34.4922C85.9061 15.7617 70.7303 0.585938 51.9999 0.585938C33.2694 0.585938 18.0936 15.7617 18.0936 34.4922C18.0936 45.7988 23.6307 55.8203 32.1483 61.9863C32.0936 62.0137 32.0389 62.0273 31.9842 62.0547C25.8592 64.6387 20.3631 68.3438 15.6463 73.0742C10.9529 77.7578 7.21085 83.3058 4.62681 89.4121C2.08824 95.3902 0.719138 101.799 0.593604 108.293C0.589955 108.439 0.615549 108.584 0.668879 108.72C0.722209 108.856 0.802195 108.98 0.904125 109.084C1.00605 109.189 1.12787 109.272 1.26238 109.328C1.39689 109.385 1.54139 109.414 1.68735 109.414H9.89048C10.492 109.414 10.9706 108.936 10.9842 108.348C11.2577 97.793 15.4959 87.9082 22.9881 80.416C30.7401 72.6641 41.035 68.3984 51.9999 68.3984C62.9647 68.3984 73.2596 72.6641 81.0116 80.416C88.5038 87.9082 92.742 97.793 93.0155 108.348C93.0292 108.949 93.5077 109.414 94.1092 109.414H102.312C102.458 109.414 102.603 109.385 102.737 109.328C102.872 109.272 102.994 109.189 103.096 109.084C103.198 108.98 103.277 108.856 103.331 108.72C103.384 108.584 103.41 108.439 103.406 108.293C103.269 101.758 101.916 95.4004 99.3729 89.3984ZM51.9999 58.0078C45.7245 58.0078 39.8182 55.5605 35.3749 51.1172C30.9315 46.6738 28.4842 40.7676 28.4842 34.4922C28.4842 28.2168 30.9315 22.3105 35.3749 17.8672C39.8182 13.4238 45.7245 10.9766 51.9999 10.9766C58.2752 10.9766 64.1815 13.4238 68.6248 17.8672C73.0682 22.3105 75.5155 28.2168 75.5155 34.4922C75.5155 40.7676 73.0682 46.6738 68.6248 51.1172C64.1815 55.5605 58.2752 58.0078 51.9999 58.0078Z" fill="#F3F6F7"/>
</svg>
