<svg width="491" height="45" viewBox="0 0 491 45" fill="none" xmlns="http://www.w3.org/2000/svg">
<path d="M33.392 13.96C33.0507 13.96 32.7947 13.832 32.624 13.576C32.496 13.32 32.496 13.0213 32.624 12.68L34.608 7.688C34.736 7.304 34.7147 6.984 34.544 6.728C34.416 6.472 34.16 6.344 33.776 6.344H21.424L24.816 7.56L13.616 35.976C13.1467 37.1707 13.0187 37.96 13.232 38.344C13.488 38.6853 14.2133 38.856 15.408 38.856H21.04C21.936 38.8133 22.5547 38.3653 22.896 37.512L23.472 36.104L35.696 31.432L31.728 41.672C31.472 42.2693 31.088 42.824 30.576 43.336C30.1067 43.848 29.552 44.2533 28.912 44.552C28.272 44.8507 27.6533 45 27.056 45H2.992C2.05333 45 1.392 44.68 1.008 44.04C0.624 43.3573 0.602666 42.568 0.944 41.672L15.92 3.528C16.048 3.18667 16.24 2.84533 16.496 2.504C16.752 2.16266 17.0293 1.864 17.328 1.608C17.6267 1.30933 17.9467 1.05333 18.288 0.839996C18.672 0.626663 19.056 0.477331 19.44 0.391998C19.824 0.263997 20.208 0.199997 20.592 0.199997H44.656C45.552 0.199997 46.192 0.541331 46.576 1.224C47.0027 1.864 47.024 2.632 46.64 3.528L43.056 12.68C42.7573 13.4907 42.1813 13.9173 41.328 13.96H33.392ZM79.156 0.199997C80.052 0.199997 80.692 0.541331 81.076 1.224C81.5027 1.864 81.524 2.632 81.14 3.528L66.228 41.672C65.844 42.568 65.204 43.3573 64.308 44.04C63.412 44.68 62.4947 45 61.556 45H37.492C36.5533 45 35.892 44.68 35.508 44.04C35.124 43.3573 35.1027 42.568 35.444 41.672L50.42 3.528C50.7613 2.632 51.38 1.864 52.276 1.224C53.2147 0.541331 54.1533 0.199997 55.092 0.199997H62.132L47.796 36.872C47.5827 37.4267 47.5827 37.896 47.796 38.28C48.052 38.664 48.4573 38.856 49.012 38.856H54.836C56.2013 38.7707 57.14 38.1093 57.652 36.872L72.052 0.199997H79.156ZM113.762 9.992H103.33L103.97 8.328C104.098 7.98667 104.119 7.66667 104.034 7.368C103.991 7.06933 103.842 6.83466 103.586 6.664C103.372 6.45066 103.095 6.344 102.754 6.344H96.9295C96.8442 6.344 96.7588 6.344 96.6735 6.344H91.0415L94.3695 7.56L92.0655 13.576C91.8095 14.1733 91.8095 14.6853 92.0655 15.112C92.3215 15.5387 92.7695 15.752 93.4095 15.752H108.194C109.09 15.752 109.73 16.0933 110.114 16.776C110.54 17.416 110.562 18.184 110.178 19.08L101.346 41.672C100.962 42.568 100.322 43.3573 99.4255 44.04C98.5295 44.68 97.6122 45 96.6735 45H72.6095C71.6708 45 71.0095 44.68 70.6255 44.04C70.2415 43.3573 70.2202 42.568 70.5615 41.672L73.4415 34.312H83.8735L82.9135 36.872C82.7002 37.4267 82.7002 37.896 82.9135 38.28C83.1695 38.664 83.5748 38.856 84.1295 38.856H89.9535C91.3188 38.7707 92.2575 38.088 92.7695 36.808L95.9695 28.616C96.2255 28.0187 96.2255 27.5067 95.9695 27.08C95.7135 26.6533 95.2868 26.44 94.6895 26.44H79.5215C78.7108 26.44 78.1135 26.1627 77.7295 25.608C77.3882 25.0107 77.3882 24.2853 77.7295 23.432L85.5375 3.528C85.7508 2.93066 86.1135 2.376 86.6255 1.864C87.1375 1.352 87.6922 0.946664 88.2895 0.647999C88.9295 0.349331 89.5695 0.199997 90.2095 0.199997H114.274C115.17 0.199997 115.81 0.541331 116.194 1.224C116.62 1.864 116.663 2.632 116.322 3.528L113.762 9.992ZM148.251 2.312C148.251 2.73867 148.166 3.144 147.995 3.528L145.627 9.608H135.451H131.611L134.939 10.824L133.659 14.088H133.723L121.563 45H114.523C113.584 45 112.923 44.68 112.539 44.04C112.155 43.3573 112.134 42.568 112.475 41.672L125.019 9.608H114.843L117.275 3.528C117.446 3.10133 117.68 2.696 117.979 2.312C118.491 1.672 119.11 1.16 119.835 0.775997C120.006 0.690665 120.176 0.605331 120.347 0.519997C120.603 0.434664 120.88 0.349331 121.179 0.263996C121.435 0.22133 121.691 0.199997 121.947 0.199997H145.947C146.203 0.199997 146.438 0.22133 146.651 0.263996C146.864 0.306665 147.078 0.391998 147.291 0.519997C147.419 0.605331 147.526 0.690665 147.611 0.775997C148.08 1.20266 148.294 1.71466 148.251 2.312ZM178.781 0.199997C179.378 0.199997 179.869 0.349331 180.253 0.647999C180.68 0.946664 180.936 1.352 181.021 1.864C181.106 2.376 181.021 2.93066 180.765 3.528L165.853 41.672C165.469 42.568 164.829 43.3573 163.933 44.04C163.037 44.68 162.12 45 161.181 45H137.117C136.178 45 135.517 44.68 135.133 44.04C134.749 43.3573 134.728 42.568 135.069 41.672L150.045 3.528C150.386 2.632 151.005 1.864 151.901 1.224C152.84 0.541331 153.778 0.199997 154.717 0.199997H178.781ZM168.477 8.328C168.605 7.98667 168.626 7.66667 168.541 7.368C168.498 7.06933 168.349 6.83466 168.093 6.664C167.88 6.45066 167.581 6.344 167.197 6.344H155.549L158.877 7.56L147.421 36.872C147.208 37.4267 147.208 37.896 147.421 38.28C147.677 38.664 148.082 38.856 148.637 38.856H154.461C155.826 38.7707 156.765 38.1093 157.277 36.872L168.477 8.328ZM234.571 0.199997C235.509 0.199997 236.171 0.541331 236.555 1.224C236.939 1.864 236.96 2.632 236.619 3.528L221.643 41.672C221.301 42.568 220.661 43.3573 219.723 44.04C218.827 44.68 217.909 45 216.971 45H209.931L224.267 8.328C224.48 7.77333 224.459 7.304 224.203 6.92C223.989 6.536 223.605 6.344 223.051 6.344H217.227C215.861 6.42933 214.923 7.09066 214.411 8.328L200.011 45H189.515L203.915 8.328C204.128 7.77333 204.107 7.304 203.851 6.92C203.637 6.536 203.232 6.344 202.635 6.344H196.811C196.811 6.344 196.789 6.344 196.747 6.344H190.987L194.378 7.56L194.059 8.264C194.059 8.30667 194.059 8.328 194.059 8.328L179.659 45H172.554C171.616 45 170.954 44.68 170.57 44.04C170.186 43.3573 170.165 42.568 170.506 41.672L185.483 3.528C185.824 2.632 186.443 1.864 187.339 1.224C188.277 0.541331 189.216 0.199997 190.155 0.199997H234.571ZM316.632 0.199997C317.57 0.199997 318.232 0.541331 318.616 1.224C319.042 1.864 319.064 2.632 318.68 3.528L303.768 41.672C303.384 42.568 302.722 43.3573 301.784 44.04C300.888 44.68 299.992 45 299.096 45H254.679C253.741 45 253.079 44.68 252.695 44.04C252.311 43.3573 252.29 42.568 252.631 41.672L267.608 3.528C267.949 2.632 268.568 1.864 269.464 1.224C270.402 0.541331 271.341 0.199997 272.28 0.199997H279.32L264.984 36.872C264.77 37.4267 264.77 37.896 264.984 38.28C265.24 38.664 265.645 38.856 266.2 38.856H272.024C273.389 38.7707 274.328 38.1093 274.84 36.872L289.24 0.199997H299.672L285.336 36.872C285.122 37.4267 285.122 37.896 285.336 38.28C285.592 38.664 285.997 38.856 286.552 38.856H292.376C293.698 38.7707 294.637 38.1093 295.192 36.872L309.528 0.199997H316.632ZM352.156 0.199997C352.753 0.199997 353.244 0.349331 353.628 0.647999C354.055 0.946664 354.311 1.352 354.396 1.864C354.481 2.376 354.396 2.93066 354.14 3.528L339.228 41.672C338.844 42.568 338.204 43.3573 337.308 44.04C336.412 44.68 335.495 45 334.556 45H327.452L334.428 27.272H320.988L324.06 28.552L317.596 45H310.492C309.553 45 308.892 44.68 308.508 44.04C308.124 43.3573 308.103 42.568 308.444 41.672L323.42 3.528C323.761 2.632 324.38 1.864 325.276 1.224C326.215 0.541331 327.153 0.199997 328.092 0.199997H335.132L328.22 17.928H338.076L345.052 0.199997H352.156ZM373.322 6.344H364.426L367.753 7.56L366.538 10.824L363.722 17.928H373.962C372.938 20.488 371.146 22.6853 368.586 24.52C366.068 26.3547 363.53 27.272 360.97 27.272H360.074L355.53 38.856H360.586C361.908 38.856 363.21 38.3867 364.49 37.448C365.812 36.5093 366.73 35.3787 367.242 34.056L367.37 33.736H377.866L376.394 37.448C376.052 38.2587 375.604 39.048 375.05 39.816C374.495 40.584 373.855 41.288 373.13 41.928C372.447 42.5253 371.7 43.0587 370.89 43.528C370.079 43.9973 369.247 44.36 368.394 44.616C367.54 44.872 366.708 45 365.898 45H342.665L360.202 0.199997H383.434C385.524 0.199997 387.018 0.946664 387.914 2.44C388.81 3.89066 388.852 5.66133 388.042 7.752L386.826 10.888H376.33L376.394 10.696C376.607 9.84266 376.628 9.096 376.458 8.456C376.287 7.816 375.924 7.304 375.37 6.92C374.815 6.536 374.132 6.344 373.322 6.344ZM407.259 6.344H398.363L401.691 7.56L400.475 10.824L397.659 17.928H407.899C406.875 20.488 405.083 22.6853 402.523 24.52C400.006 26.3547 397.467 27.272 394.907 27.272H394.011L389.467 38.856H394.523C395.846 38.856 397.147 38.3867 398.427 37.448C399.75 36.5093 400.667 35.3787 401.179 34.056L401.307 33.736H411.803L410.331 37.448C409.99 38.2587 409.542 39.048 408.987 39.816C408.432 40.584 407.792 41.288 407.067 41.928C406.384 42.5253 405.638 43.0587 404.827 43.528C404.016 43.9973 403.184 44.36 402.331 44.616C401.478 44.872 400.646 45 399.835 45H376.603L394.139 0.199997H417.371C419.462 0.199997 420.955 0.946664 421.851 2.44C422.747 3.89066 422.79 5.66133 421.979 7.752L420.763 10.888H410.267L410.331 10.696C410.544 9.84266 410.566 9.096 410.395 8.456C410.224 7.816 409.862 7.304 409.307 6.92C408.752 6.536 408.07 6.344 407.259 6.344ZM433.965 36.872L436.013 31.56H446.509L442.541 41.672C442.157 42.568 441.517 43.3573 440.621 44.04C439.725 44.68 438.807 45 437.869 45H413.804C412.866 45 412.204 44.68 411.82 44.04C411.436 43.3573 411.415 42.568 411.756 41.672L426.733 3.528C427.074 2.632 427.693 1.864 428.589 1.224C429.527 0.541331 430.466 0.199997 431.405 0.199997H438.445L424.109 36.872C423.895 37.4267 423.895 37.896 424.109 38.28C424.365 38.664 424.77 38.856 425.325 38.856H431.149C432.514 38.7707 433.453 38.1093 433.965 36.872ZM487.762 9.992H477.33L477.97 8.328C478.098 7.98667 478.119 7.66667 478.034 7.368C477.991 7.06933 477.842 6.83466 477.586 6.664C477.372 6.45066 477.095 6.344 476.754 6.344H470.93C470.844 6.344 470.759 6.344 470.674 6.344H465.042L468.37 7.56L466.066 13.576C465.81 14.1733 465.81 14.6853 466.066 15.112C466.322 15.5387 466.77 15.752 467.41 15.752H482.194C483.09 15.752 483.73 16.0933 484.114 16.776C484.54 17.416 484.562 18.184 484.178 19.08L475.346 41.672C474.962 42.568 474.322 43.3573 473.426 44.04C472.53 44.68 471.612 45 470.674 45H446.609C445.671 45 445.009 44.68 444.625 44.04C444.241 43.3573 444.22 42.568 444.561 41.672L447.441 34.312H457.874L456.914 36.872C456.7 37.4267 456.7 37.896 456.914 38.28C457.17 38.664 457.575 38.856 458.13 38.856H463.954C465.319 38.7707 466.258 38.088 466.77 36.808L469.97 28.616C470.226 28.0187 470.226 27.5067 469.97 27.08C469.714 26.6533 469.287 26.44 468.69 26.44H453.522C452.711 26.44 452.114 26.1627 451.73 25.608C451.388 25.0107 451.388 24.2853 451.73 23.432L459.538 3.528C459.751 2.93066 460.114 2.376 460.626 1.864C461.138 1.352 461.692 0.946664 462.29 0.647999C462.93 0.349331 463.57 0.199997 464.21 0.199997H488.274C489.17 0.199997 489.81 0.541331 490.194 1.224C490.62 1.864 490.663 2.632 490.322 3.528L487.762 9.992Z" fill="#0000A2"/>
</svg>
