<svg width="78" height="61" viewBox="0 0 78 61" fill="none" xmlns="http://www.w3.org/2000/svg">
<path d="M1.989 59.0426C0.6708 57.7277 0 56.1309 0 54.2247C0 52.3186 0.6708 50.7217 1.989 49.4069C3.3072 48.092 4.9335 47.4482 6.81915 47.4482C8.7048 47.4482 10.3311 48.092 11.6493 49.4069C12.9675 50.7217 13.6383 52.3186 13.6383 54.2247C13.6383 56.1309 12.9675 57.7277 11.6493 59.0426C10.3311 60.3574 8.73015 61.0012 6.81915 61.0012C4.90815 61.0012 3.3072 60.3574 1.989 59.0426ZM6.81915 58.2957C7.956 58.2957 8.9115 57.9086 9.68565 57.1364C10.4598 56.3643 10.8478 55.384 10.8478 54.2247C10.8478 53.0655 10.4598 52.0871 9.68565 51.313C8.9115 50.5389 7.956 50.1538 6.81915 50.1538C5.6823 50.1538 4.7268 50.5408 3.95265 51.313C3.1785 52.0852 2.79045 53.0655 2.79045 54.2247C2.79045 55.384 3.1785 56.3623 3.95265 57.1364C4.7268 57.9106 5.6823 58.2957 6.81915 58.2957Z" fill="black"/>
<path d="M23.1152 50.4631H19.9133V56.6463C19.9133 58.2957 20.9975 58.2685 23.1152 58.1654V60.6648C18.8545 61.1802 17.1229 60.021 17.1229 56.6463V50.4631H14.7458V47.7848H17.1229V45.0034L19.9114 44.1787V47.7848H23.1133V50.4631H23.1152Z" fill="black"/>
<path d="M26.3952 59.0426C25.077 57.7277 24.4062 56.1309 24.4062 54.2247C24.4062 52.3186 25.077 50.7217 26.3952 49.4069C27.7134 48.092 29.3398 47.4482 31.2254 47.4482C33.111 47.4482 34.7373 48.092 36.0555 49.4069C37.3737 50.7217 38.0445 52.3186 38.0445 54.2247C38.0445 56.1309 37.3737 57.7277 36.0555 59.0426C34.7393 60.3555 33.1364 61.0012 31.2254 61.0012C29.3144 61.0012 27.7134 60.3574 26.3952 59.0426ZM31.2254 58.2957C32.3622 58.2957 33.3177 57.9086 34.0919 57.1364C34.866 56.3643 35.2541 55.384 35.2541 54.2247C35.2541 53.0655 34.866 52.0871 34.0919 51.313C33.3177 50.5408 32.3622 50.1538 31.2254 50.1538C30.0886 50.1538 29.133 50.5408 28.3589 51.313C27.5847 52.0852 27.1967 53.0655 27.1967 54.2247C27.1967 55.384 27.5847 56.3623 28.3589 57.1364C29.133 57.9106 30.0886 58.2957 31.2254 58.2957Z" fill="black"/>
<path d="M43.3642 49.948C44.0623 48.3512 45.4039 47.5518 47.3422 47.5518V50.5666C46.2833 50.4888 45.3532 50.7474 44.5537 51.3387C43.7522 51.9047 43.3661 52.8578 43.3661 54.1726V60.6651H40.5776V47.7852H43.3661V49.95L43.3642 49.948Z" fill="black"/>
<path d="M50.0798 59.0426C48.7616 57.7277 48.0908 56.1309 48.0908 54.2247C48.0908 52.3186 48.7616 50.7217 50.0798 49.4069C51.398 48.092 53.0243 47.4482 54.91 47.4482C56.7956 47.4482 58.4219 48.092 59.7401 49.4069C61.0583 50.7217 61.7291 52.3186 61.7291 54.2247C61.7291 56.1309 61.0583 57.7277 59.7401 59.0426C58.4219 60.3574 56.821 61.0012 54.91 61.0012C52.999 61.0012 51.398 60.3574 50.0798 59.0426ZM54.91 58.2957C56.0468 58.2957 57.0023 57.9086 57.7765 57.1364C58.5506 56.3643 58.9387 55.384 58.9387 54.2247C58.9387 53.0655 58.5506 52.0871 57.7765 51.313C57.0023 50.5389 56.0468 50.1538 54.91 50.1538C53.7731 50.1538 52.8176 50.5408 52.0435 51.313C51.2693 52.0852 50.8813 53.0655 50.8813 54.2247C50.8813 55.384 51.2693 56.3623 52.0435 57.1364C52.8176 57.9106 53.7731 58.2957 54.91 58.2957Z" fill="black"/>
<path d="M76.1143 49.4074C77.3798 50.7222 78 52.3191 78 54.2252C78 56.1313 77.3798 57.7282 76.1143 59.043C74.8487 60.3559 73.3511 61.0017 71.5688 61.0017C69.6052 61.0017 68.1076 60.2801 67.0488 58.8116V60.6671H64.2603V42.6348H67.0488V49.6155C68.1076 48.1723 69.6052 47.4507 71.5688 47.4507C73.3511 47.4507 74.8487 48.0945 76.1143 49.4093V49.4074ZM71.1301 58.3467C72.2923 58.3467 73.2732 57.9596 74.0492 57.1875C74.8234 56.3881 75.2115 55.4097 75.2115 54.2252C75.2115 53.0407 74.8234 52.0604 74.0492 51.2882C73.2751 50.4888 72.2923 50.1037 71.1301 50.1037C69.9679 50.1037 68.987 50.4907 68.2109 51.2882C67.4368 52.0604 67.0488 53.0407 67.0488 54.2252C67.0488 55.4097 67.4368 56.39 68.2109 57.1875C68.9851 57.9596 69.9679 58.3467 71.1301 58.3467Z" fill="black"/>
<path d="M39 7.51948C44.5965 7.51948 49.1497 12.0611 49.1497 17.6434C49.1497 23.2256 44.5965 27.7672 39 27.7672C33.4035 27.7672 28.8502 23.2256 28.8502 17.6434C28.8502 12.0611 33.4035 7.51948 39 7.51948ZM39 0C29.2305 0 21.3115 7.89876 21.3115 17.6434C21.3115 27.388 29.2305 35.2867 39 35.2867C48.7695 35.2867 56.6884 27.388 56.6884 17.6434C56.6884 7.89876 48.7695 0 39 0Z" fill="url(#paint0_linear_140_1029)"/>
<defs>
<linearGradient id="paint0_linear_140_1029" x1="27.8713" y1="26.1645" x2="55.8806" y2="4.60873" gradientUnits="userSpaceOnUse">
<stop stop-color="#020044"/>
<stop offset="1" stop-color="#0000A2"/>
</linearGradient>
</defs>
</svg>
