<svg width="153" height="120" viewBox="0 0 153 120" fill="none" xmlns="http://www.w3.org/2000/svg">
<path d="M3.9015 116.151C1.3158 113.564 0 110.423 0 106.673C0 102.923 1.3158 99.7819 3.9015 97.1954C6.4872 94.6088 9.67725 93.3423 13.376 93.3423C17.0748 93.3423 20.2649 94.6088 22.8506 97.1954C25.4363 99.7819 26.7521 102.923 26.7521 106.673C26.7521 110.423 25.4363 113.564 22.8506 116.151C20.2687 118.734 17.1245 120.004 13.376 120.004C9.62753 120.004 6.4872 118.737 3.9015 116.151ZM13.376 114.681C15.606 114.681 17.4802 113.92 18.9988 112.401C20.5173 110.882 21.2785 108.954 21.2785 106.673C21.2785 104.393 20.5173 102.468 18.9988 100.945C17.4802 99.4223 15.606 98.6646 13.376 98.6646C11.1461 98.6646 9.2718 99.4261 7.75328 100.945C6.23475 102.464 5.47358 104.393 5.47358 106.673C5.47358 108.954 6.23475 110.878 7.75328 112.401C9.2718 113.924 11.1461 114.681 13.376 114.681Z" fill="white"/>
<path d="M45.3415 99.2729H39.0608V111.437C39.0608 114.681 41.1875 114.628 45.3415 114.425V119.342C36.9838 120.356 33.5872 118.075 33.5872 111.437V99.2729H28.9246V94.0041H33.5872V88.5325L39.057 86.9102V94.0041H45.3376V99.2729H45.3415Z" fill="white"/>
<path d="M51.7753 116.151C49.1896 113.564 47.8738 110.423 47.8738 106.673C47.8738 102.923 49.1896 99.7819 51.7753 97.1954C54.361 94.6088 57.551 93.3423 61.2498 93.3423C64.9486 93.3423 68.1386 94.6088 70.7243 97.1954C73.31 99.7819 74.6258 102.923 74.6258 106.673C74.6258 110.423 73.31 113.564 70.7243 116.151C68.1425 118.734 64.9983 120.004 61.2498 120.004C57.5013 120.004 54.361 118.737 51.7753 116.151ZM61.2498 114.681C63.4798 114.681 65.354 113.92 66.8726 112.401C68.3911 110.882 69.1523 108.954 69.1523 106.673C69.1523 104.393 68.3911 102.468 66.8726 100.945C65.354 99.4261 63.4798 98.6646 61.2498 98.6646C59.0198 98.6646 57.1456 99.4261 55.6271 100.945C54.1085 102.464 53.3474 104.393 53.3474 106.673C53.3474 108.954 54.1085 110.878 55.6271 112.401C57.1456 113.92 59.0198 114.681 61.2498 114.681Z" fill="white"/>
<path d="M85.0604 98.2589C86.4298 95.1175 89.0614 93.5449 92.8634 93.5449V99.4757C90.7864 99.3226 88.9619 99.8315 87.3937 100.995C85.8216 102.108 85.0642 103.983 85.0642 106.57V119.342H79.5945V94.0041H85.0642V98.2627L85.0604 98.2589Z" fill="white"/>
<path d="M98.2335 116.151C95.6478 113.564 94.332 110.423 94.332 106.673C94.332 102.923 95.6478 99.7819 98.2335 97.1954C100.819 94.6088 104.009 93.3423 107.708 93.3423C111.407 93.3423 114.597 94.6088 117.183 97.1954C119.768 99.7819 121.084 102.923 121.084 106.673C121.084 110.423 119.768 113.564 117.183 116.151C114.601 118.734 111.457 120.004 107.708 120.004C103.96 120.004 100.819 118.737 98.2335 116.151ZM107.708 114.681C109.938 114.681 111.812 113.92 113.331 112.401C114.849 110.882 115.611 108.954 115.611 106.673C115.611 104.393 114.849 102.468 113.331 100.945C111.812 99.4261 109.938 98.6646 107.708 98.6646C105.478 98.6646 103.604 99.4261 102.085 100.945C100.567 102.464 99.8056 104.393 99.8056 106.673C99.8056 108.954 100.567 110.878 102.085 112.401C103.604 113.92 105.478 114.681 107.708 114.681Z" fill="white"/>
<path d="M149.301 97.1952C151.784 99.7818 153 102.923 153 106.673C153 110.423 151.784 113.564 149.301 116.151C146.819 118.733 143.881 120.004 140.385 120.004C136.533 120.004 133.596 118.584 131.519 115.695V119.346H126.049V83.8721H131.519V97.6046C133.596 94.7655 136.533 93.346 140.385 93.346C143.881 93.346 146.819 94.6125 149.301 97.199V97.1952ZM139.525 114.781C141.804 114.781 143.728 114.019 145.251 112.5C146.769 110.928 147.53 109.003 147.53 106.673C147.53 104.343 146.769 102.414 145.251 100.895C143.732 99.3226 141.804 98.565 139.525 98.565C137.245 98.565 135.321 99.3264 133.799 100.895C132.28 102.414 131.519 104.343 131.519 106.673C131.519 109.003 132.28 110.932 133.799 112.5C135.317 114.019 137.245 114.781 139.525 114.781Z" fill="white"/>
<path d="M76.5 14.7924C87.4778 14.7924 96.4092 23.7268 96.4092 34.7082C96.4092 45.6897 87.4778 54.6241 76.5 54.6241C65.5223 54.6241 56.5909 45.6897 56.5909 34.7082C56.5909 23.7268 65.5223 14.7924 76.5 14.7924ZM76.5 0C57.3368 0 41.8035 15.5385 41.8035 34.7082C41.8035 53.8779 57.3368 69.4165 76.5 69.4165C95.6633 69.4165 111.197 53.8779 111.197 34.7082C111.197 15.5385 95.6633 0 76.5 0Z" fill="white"/>
</svg>
