<svg width="19" height="19" viewBox="0 0 19 19" fill="none" xmlns="http://www.w3.org/2000/svg">
<path d="M8.00009 6.07538e-09C9.39807 -5.62529e-05 10.7682 0.390614 11.956 1.12792C13.1437 1.86523 14.1017 2.91983 14.7219 4.1727C15.3421 5.42558 15.5998 6.82686 15.4659 8.21841C15.332 9.60996 14.8118 10.9364 13.9641 12.048L18.7071 16.793C18.8864 16.973 18.9906 17.2144 18.9983 17.4684C19.0061 17.7223 18.9169 17.9697 18.7488 18.1603C18.5808 18.3508 18.3465 18.4703 18.0936 18.4944C17.8407 18.5185 17.5881 18.4454 17.3871 18.29L17.2931 18.207L12.5481 13.464C11.6011 14.1861 10.4958 14.6723 9.32353 14.8824C8.15132 15.0925 6.94592 15.0204 5.80709 14.6721C4.66826 14.3238 3.62874 13.7094 2.77455 12.8795C1.92035 12.0497 1.27604 11.0285 0.894921 9.90019C0.513805 8.77192 0.406844 7.56912 0.582888 6.39131C0.758932 5.2135 1.21292 4.09454 1.90729 3.12703C2.60165 2.15951 3.51644 1.37126 4.57594 0.827486C5.63544 0.283715 6.8092 6.2855e-05 8.00009 6.07538e-09ZM8.00009 2C6.5414 2 5.14246 2.57946 4.11101 3.61091C3.07956 4.64236 2.50009 6.04131 2.50009 7.5C2.50009 8.95869 3.07956 10.3576 4.11101 11.3891C5.14246 12.4205 6.5414 13 8.00009 13C9.45878 13 10.8577 12.4205 11.8892 11.3891C12.9206 10.3576 13.5001 8.95869 13.5001 7.5C13.5001 6.04131 12.9206 4.64236 11.8892 3.61091C10.8577 2.57946 9.45878 2 8.00009 2Z" fill="#0000A2"/>
</svg>
