<svg width="463" height="45" viewBox="0 0 463 45" fill="none" xmlns="http://www.w3.org/2000/svg">
<path d="M36.0169 2.112C36.0169 2.53867 35.9316 2.944 35.7609 3.328L33.3929 9.408H23.2169H19.3769L22.7049 10.624L21.4249 13.888H21.4889L9.32894 44.8H2.28894C1.35027 44.8 0.688941 44.48 0.304941 43.84C-0.0790588 43.1573 -0.100392 42.368 0.240941 41.472L12.7849 9.408H2.60894L5.04094 3.328C5.21161 2.90133 5.44627 2.496 5.74494 2.112C6.25694 1.472 6.87561 0.96 7.60094 0.576C7.77161 0.490668 7.94227 0.405334 8.11294 0.32C8.36894 0.234667 8.64627 0.149334 8.94494 0.0639992C9.20094 0.0213331 9.45694 0 9.71294 0H33.7129C33.9689 0 34.2036 0.0213331 34.4169 0.0639992C34.6303 0.106668 34.8436 0.192001 35.0569 0.32C35.1849 0.405334 35.2916 0.490668 35.3769 0.576C35.8463 1.00267 36.0596 1.51467 36.0169 2.112Z" fill="#020044"/>
<path d="M63.6029 16.192C62.2803 19.5627 60.0403 21.7387 56.8829 22.72C57.7363 22.8907 58.4403 23.3173 58.9949 24C59.6349 24.9387 59.6136 26.2827 58.9309 28.032L53.6829 41.472C53.3416 42.368 52.7016 43.1573 51.7629 43.84C50.8669 44.48 49.9496 44.8 49.0109 44.8H41.9069L46.4509 33.216C47.0056 31.8507 46.9843 30.6987 46.3869 29.76C45.7896 28.7787 44.8083 28.288 43.4429 28.288H43.1869L46.8989 18.944H49.7789C51.3149 18.816 52.3816 18.048 52.9789 16.64L56.3069 8.128C56.5203 7.57334 56.4989 7.104 56.2429 6.72C56.0296 6.336 55.6456 6.144 55.0909 6.144H43.4429L46.7709 7.36L46.4509 8.064C46.4509 8.10667 46.4509 8.14933 46.4509 8.192L32.0509 44.8H21.6189L39.1549 0H66.6109C67.2083 0 67.6989 0.149334 68.0829 0.448002C68.5096 0.746667 68.7656 1.152 68.8509 1.664C68.9363 2.176 68.8509 2.73067 68.5949 3.328L63.6029 16.192Z" fill="#020044"/>
<path d="M101.922 0C102.818 0 103.458 0.341334 103.842 1.024C104.269 1.664 104.29 2.432 103.906 3.328L88.9939 41.472C88.6099 42.368 87.9699 43.1573 87.0739 43.84C86.1779 44.48 85.2606 44.8 84.3219 44.8H60.2579C59.3193 44.8 58.6579 44.48 58.2739 43.84C57.8899 43.1573 57.8686 42.368 58.2099 41.472L73.1859 3.328C73.5273 2.432 74.1459 1.664 75.0419 1.024C75.9806 0.341334 76.9193 0 77.8579 0H84.8979L70.5619 36.672C70.3486 37.2267 70.3486 37.696 70.5619 38.08C70.8179 38.464 71.2233 38.656 71.7779 38.656H77.6019C78.9673 38.5707 79.9059 37.9093 80.4179 36.672L94.8179 0H101.922Z" fill="#020044"/>
<path d="M136.527 9.792H126.095L126.735 8.128C126.863 7.78667 126.885 7.46667 126.799 7.168C126.757 6.86934 126.607 6.63467 126.351 6.464C126.138 6.25067 125.861 6.144 125.519 6.144H119.695C119.61 6.144 119.525 6.144 119.439 6.144H113.807L117.135 7.36L114.831 13.376C114.575 13.9733 114.575 14.4853 114.831 14.912C115.087 15.3387 115.535 15.552 116.175 15.552H130.959C131.855 15.552 132.495 15.8933 132.879 16.576C133.306 17.216 133.327 17.984 132.943 18.88L124.111 41.472C123.727 42.368 123.087 43.1573 122.191 43.84C121.295 44.48 120.378 44.8 119.439 44.8H95.3754C94.4368 44.8 93.7754 44.48 93.3914 43.84C93.0074 43.1573 92.9861 42.368 93.3274 41.472L96.2074 34.112H106.639L105.679 36.672C105.466 37.2267 105.466 37.696 105.679 38.08C105.935 38.464 106.341 38.656 106.895 38.656H112.719C114.085 38.5707 115.023 37.888 115.535 36.608L118.735 28.416C118.991 27.8187 118.991 27.3067 118.735 26.88C118.479 26.4533 118.053 26.24 117.455 26.24H102.287C101.477 26.24 100.879 25.9627 100.495 25.408C100.154 24.8107 100.154 24.0853 100.495 23.232L108.303 3.328C108.517 2.73067 108.879 2.176 109.391 1.664C109.903 1.152 110.458 0.746667 111.055 0.448002C111.695 0.149334 112.335 0 112.975 0H137.039C137.935 0 138.575 0.341334 138.959 1.024C139.386 1.664 139.429 2.432 139.087 3.328L136.527 9.792Z" fill="#020044"/>
<path d="M171.017 2.112C171.017 2.53867 170.932 2.944 170.761 3.328L168.393 9.408H158.217H154.377L157.705 10.624L156.425 13.888H156.489L144.329 44.8H137.289C136.35 44.8 135.689 44.48 135.305 43.84C134.921 43.1573 134.9 42.368 135.241 41.472L147.785 9.408H137.609L140.041 3.328C140.212 2.90133 140.446 2.496 140.745 2.112C141.257 1.472 141.876 0.96 142.601 0.576C142.772 0.490668 142.942 0.405334 143.113 0.32C143.369 0.234667 143.646 0.149334 143.945 0.0639992C144.201 0.0213331 144.457 0 144.713 0H168.713C168.969 0 169.204 0.0213331 169.417 0.0639992C169.63 0.106668 169.844 0.192001 170.057 0.32C170.185 0.405334 170.292 0.490668 170.377 0.576C170.846 1.00267 171.06 1.51467 171.017 2.112Z" fill="#020044"/>
<path d="M187.275 6.144H178.379L181.707 7.36L180.491 10.624L177.675 17.728H187.915C186.891 20.288 185.099 22.4853 182.539 24.32C180.022 26.1547 177.483 27.072 174.923 27.072H174.027L169.483 38.656H174.539C175.862 38.656 177.163 38.1867 178.443 37.248C179.766 36.3093 180.683 35.1787 181.195 33.856L181.323 33.536H191.819L190.347 37.248C190.006 38.0587 189.558 38.848 189.003 39.616C188.448 40.384 187.808 41.088 187.083 41.728C186.4 42.3253 185.654 42.8587 184.843 43.328C184.032 43.7973 183.2 44.16 182.347 44.416C181.494 44.672 180.662 44.8 179.851 44.8H156.619L174.155 0H197.387C199.478 0 200.971 0.746667 201.867 2.24C202.763 3.69067 202.806 5.46133 201.995 7.552L200.779 10.688H190.283L190.347 10.496C190.56 9.64267 190.582 8.896 190.411 8.256C190.24 7.616 189.878 7.104 189.323 6.72C188.768 6.336 188.086 6.144 187.275 6.144Z" fill="#020044"/>
<path d="M231.324 0C233.415 0 234.908 0.746667 235.804 2.24C236.7 3.69067 236.743 5.46133 235.932 7.552L224.284 37.248C223.474 39.3387 222.023 41.1307 219.932 42.624C217.884 44.0747 215.836 44.8 213.788 44.8H190.556L208.092 0H231.324ZM224.156 10.944C224.668 9.62134 224.626 8.49067 224.028 7.552C223.474 6.61333 222.535 6.144 221.212 6.144H212.316L215.708 7.36L203.42 38.656H208.476C209.799 38.656 211.1 38.1867 212.38 37.248C213.703 36.3093 214.62 35.1787 215.132 33.856L224.156 10.944Z" fill="#020044"/>
<path d="M297.047 0C297.644 0 298.135 0.149334 298.519 0.448002C298.946 0.746667 299.202 1.152 299.287 1.664C299.372 2.176 299.287 2.73067 299.031 3.328L295.447 12.48C295.148 13.2907 294.572 13.7173 293.719 13.76H285.783C285.442 13.76 285.186 13.632 285.015 13.376C284.887 13.12 284.887 12.8213 285.015 12.48L286.999 7.488C287.127 7.104 287.106 6.784 286.935 6.528C286.807 6.272 286.551 6.144 286.167 6.144H273.815L277.207 7.36L266.007 35.776C265.538 36.9707 265.41 37.76 265.623 38.144C265.879 38.4853 266.583 38.656 267.735 38.656H273.431C274.327 38.6133 274.946 38.1653 275.287 37.312L278.807 28.288H274.327C274.156 28.288 274.028 28.224 273.943 28.096C273.858 27.968 273.858 27.7973 273.943 27.584L277.079 19.648C277.25 19.2213 277.548 18.9867 277.975 18.944H292.119C292.332 18.944 292.482 19.0293 292.567 19.2C292.695 19.3707 292.716 19.5627 292.631 19.776L284.119 41.472C283.735 42.368 283.095 43.1573 282.199 43.84C281.303 44.48 280.386 44.8 279.447 44.8H255.383C254.444 44.8 253.783 44.48 253.399 43.84C253.015 43.1573 252.994 42.368 253.335 41.472L268.311 3.328C268.652 2.432 269.271 1.664 270.167 1.024C271.106 0.341334 272.044 0 272.983 0H297.047Z" fill="#020044"/>
<path d="M310.855 36.672L312.903 31.36H323.399L319.431 41.472C319.047 42.368 318.407 43.1573 317.511 43.84C316.615 44.48 315.698 44.8 314.759 44.8H290.695C289.757 44.8 289.095 44.48 288.711 43.84C288.327 43.1573 288.306 42.368 288.647 41.472L303.623 3.328C303.965 2.432 304.583 1.664 305.479 1.024C306.418 0.341334 307.357 0 308.295 0H315.335L300.999 36.672C300.786 37.2267 300.786 37.696 300.999 38.08C301.255 38.464 301.661 38.656 302.215 38.656H308.039C309.405 38.5707 310.343 37.9093 310.855 36.672Z" fill="#020044"/>
<path d="M365.484 0C366.082 0 366.572 0.149334 366.956 0.448002C367.383 0.746667 367.639 1.152 367.724 1.664C367.81 2.176 367.724 2.73067 367.468 3.328L352.556 41.472C352.172 42.368 351.532 43.1573 350.636 43.84C349.74 44.48 348.823 44.8 347.884 44.8H323.82C322.882 44.8 322.22 44.48 321.836 43.84C321.452 43.1573 321.431 42.368 321.772 41.472L336.748 3.328C337.09 2.432 337.708 1.664 338.604 1.024C339.543 0.341334 340.482 0 341.42 0H365.484ZM355.18 8.128C355.308 7.78667 355.33 7.46667 355.244 7.168C355.202 6.86934 355.052 6.63467 354.796 6.464C354.583 6.25067 354.284 6.144 353.9 6.144H342.252L345.58 7.36L334.124 36.672C333.911 37.2267 333.911 37.696 334.124 38.08C334.38 38.464 334.786 38.656 335.34 38.656H341.164C342.53 38.5707 343.468 37.9093 343.98 36.672L355.18 8.128Z" fill="#020044"/>
<path d="M401.626 0.256001C402.01 0.256001 402.33 0.362667 402.586 0.576C402.842 0.746667 402.991 0.981335 403.034 1.28C403.119 1.57867 403.077 1.94133 402.906 2.368L399.258 11.776C398.746 13.056 398.085 14.1653 397.274 15.104C396.463 16.0427 395.631 16.7253 394.778 17.152C393.967 17.5787 393.263 17.8773 392.666 18.048C392.111 18.2187 391.599 18.3253 391.13 18.368C391.343 18.368 391.535 18.3893 391.706 18.432C391.919 18.432 392.197 18.4747 392.538 18.56C392.922 18.6027 393.242 18.688 393.498 18.816C393.797 18.944 394.074 19.1573 394.33 19.456C394.629 19.712 394.821 20.0107 394.906 20.352C395.034 20.6933 395.077 21.1627 395.034 21.76C394.991 22.3147 394.842 22.9333 394.586 23.616L387.162 42.432C386.65 43.7547 385.69 44.4587 384.282 44.544H356.058L373.466 0.256001H401.626ZM391.066 7.168C391.151 6.912 391.173 6.69867 391.13 6.528C391.13 6.31467 391.045 6.16533 390.874 6.08C390.746 5.952 390.554 5.888 390.298 5.888H377.37L380.698 7.104L379.418 10.368H379.482L368.346 38.656H376.346C377.925 38.528 379.013 37.7387 379.61 36.288L384.858 22.976C385.157 22.336 385.135 21.7173 384.794 21.12C384.453 20.5653 383.962 20.3093 383.322 20.352C382.597 20.352 382.063 20.1173 381.722 19.648C381.423 19.136 381.423 18.5173 381.722 17.792L382.938 14.784H386.586C387.567 14.6987 388.271 14.1867 388.698 13.248L391.066 7.168Z" fill="#020044"/>
<path d="M435.859 0C436.755 0 437.395 0.341334 437.779 1.024C438.206 1.664 438.227 2.432 437.843 3.328L422.931 41.472C422.547 42.368 421.907 43.1573 421.011 43.84C420.115 44.48 419.198 44.8 418.259 44.8H411.155L417.619 28.288C416.211 28.288 415.187 27.7973 414.547 26.816C413.95 25.792 413.929 24.5547 414.483 23.104L416.147 18.944H421.331L425.555 8.128C425.769 7.57334 425.747 7.104 425.491 6.72C425.278 6.336 424.894 6.144 424.339 6.144H418.451C418.409 6.144 418.345 6.144 418.259 6.144H412.627L415.955 7.36L401.299 44.8H394.195C393.257 44.8 392.595 44.48 392.211 43.84C391.827 43.1573 391.806 42.368 392.147 41.472L407.123 3.328C407.465 2.432 408.083 1.664 408.979 1.024C409.918 0.341334 410.857 0 411.795 0H435.859Z" fill="#020044"/>
<path d="M449.793 36.672L451.841 31.36H462.337L458.369 41.472C457.985 42.368 457.345 43.1573 456.449 43.84C455.553 44.48 454.636 44.8 453.697 44.8H429.633C428.694 44.8 428.033 44.48 427.649 43.84C427.265 43.1573 427.244 42.368 427.585 41.472L442.561 3.328C442.902 2.432 443.521 1.664 444.417 1.024C445.356 0.341334 446.294 0 447.233 0H454.273L439.937 36.672C439.724 37.2267 439.724 37.696 439.937 38.08C440.193 38.464 440.598 38.656 441.153 38.656H446.977C448.342 38.5707 449.281 37.9093 449.793 36.672Z" fill="#020044"/>
</svg>
