<svg width="32" height="32" viewBox="0 0 32 32" fill="none" xmlns="http://www.w3.org/2000/svg">
<path d="M30.375 0.375H1.625C0.933594 0.375 0.375 0.933594 0.375 1.625V30.375C0.375 31.0664 0.933594 31.625 1.625 31.625H30.375C31.0664 31.625 31.625 31.0664 31.625 30.375V1.625C31.625 0.933594 31.0664 0.375 30.375 0.375ZM24.4102 11.6914C24.4219 11.875 24.4219 12.0664 24.4219 12.2539C24.4219 17.9883 20.0547 24.5938 12.0742 24.5938C9.61328 24.5938 7.33203 23.8789 5.41016 22.6484C5.76172 22.6875 6.09766 22.7031 6.45703 22.7031C8.48828 22.7031 10.3555 22.0156 11.8438 20.8516C9.9375 20.8125 8.33594 19.5625 7.78906 17.8438C8.45703 17.9414 9.05859 17.9414 9.74609 17.7656C8.76455 17.5662 7.88232 17.0331 7.24928 16.257C6.61624 15.4808 6.27143 14.5094 6.27344 13.5078V13.4531C6.84766 13.7773 7.52344 13.9766 8.23047 14.0039C7.6361 13.6078 7.14866 13.0711 6.81137 12.4415C6.47408 11.8119 6.29736 11.1088 6.29688 10.3945C6.29688 9.58594 6.50781 8.84766 6.88672 8.20703C7.97618 9.54819 9.33567 10.6451 10.8768 11.4264C12.418 12.2078 14.1063 12.6561 15.832 12.7422C15.2188 9.79297 17.4219 7.40625 20.0703 7.40625C21.3203 7.40625 22.4453 7.92969 23.2383 8.77344C24.2188 8.58984 25.1562 8.22266 25.9922 7.73047C25.668 8.73438 24.9883 9.58203 24.0859 10.1172C24.9609 10.0234 25.8047 9.78125 26.5859 9.44141C25.9961 10.3086 25.2578 11.0781 24.4102 11.6914Z" fill="white"/>
</svg>
