<svg width="40" height="27" viewBox="0 0 40 27" fill="none" xmlns="http://www.w3.org/2000/svg">
<path d="M20.1275 0H20.35C22.405 0.00719321 32.8175 0.0791257 35.625 0.803242C36.4737 1.02424 37.2471 1.455 37.8679 2.05248C38.4887 2.64996 38.9351 3.39324 39.1625 4.20803C39.415 5.11917 39.5925 6.32523 39.7125 7.56966L39.7375 7.81902L39.7925 8.44243L39.8125 8.6918C39.975 10.8833 39.995 12.9358 39.9975 13.3842V13.564C39.995 14.0292 39.9725 16.2207 39.7925 18.5033L39.7725 18.7551L39.75 19.0045C39.625 20.376 39.44 21.7379 39.1625 22.7401C38.9358 23.5553 38.4896 24.2989 37.8687 24.8965C37.2478 25.4941 36.4741 25.9246 35.625 26.1449C32.725 26.893 21.7025 26.9458 20.175 26.9482H19.82C19.0475 26.9482 15.8525 26.9338 12.5025 26.8235L12.0775 26.8091L11.86 26.7995L11.4325 26.7827L11.005 26.7659C8.23 26.6484 5.5875 26.459 4.37 26.1425C3.52122 25.9224 2.74766 25.4922 2.12681 24.8951C1.50596 24.2979 1.05962 23.5548 0.8325 22.7401C0.555 21.7403 0.37 20.376 0.245 19.0045L0.225 18.7527L0.205 18.5033C0.081619 16.8786 0.0132497 15.2505 0 13.6215L0 13.3266C0.005 12.8111 0.025 11.0296 0.16 9.06345L0.1775 8.81648L0.185 8.6918L0.205 8.44243L0.26 7.81902L0.285 7.56966C0.405 6.32523 0.5825 5.11677 0.835 4.20803C1.06173 3.39291 1.50791 2.64929 2.12878 2.0517C2.74966 1.45412 3.52342 1.02358 4.3725 0.803242C5.59 0.491536 8.2325 0.299717 11.0075 0.17983L11.4325 0.163046L11.8625 0.14866L12.0775 0.141467L12.505 0.124683C14.8843 0.051251 17.2645 0.010485 19.645 0.00239785H20.1275V0ZM16 7.69674V19.249L26.3925 13.4753L16 7.69674Z" fill="white"/>
</svg>
